# xmcd CD database file
#
# Track frame offsets:
#	150
#	20140
#	39795
#	61760
#	81595
#
# Disc length: 1342 seconds
#
# Revision: 1
# Processed by: cddbd v1.4PL0 Copyright (c) Steve Scherf et al.
# Submitted via: CDex 1.50
#
DISCID=37053c05
DTITLE=Christion - Full of Smoke - Single
DYEAR=1996
DGENRE=Blues
TTITLE0=Full of Smoke - Radio Edit
TTITLE1=Full of Smoke - Instrumental
TTITLE2=Full of Smoke - LP Version
TTITLE3=Full of Smoke - Acappella
TTITLE4=Aftermath - LP Version
EXTD=YEAR: 1996
EXTT0=
EXTT1=
EXTT2=
EXTT3=
EXTT4=
PLAYORDER=
